<mxfile host="app.diagrams.net" modified="2024-03-23T10:58:22.584Z" agent="Mozilla/5.0 (Macintosh; Intel Mac OS X 10_15_7) AppleWebKit/537.36 (KHTML, like Gecko) Chrome/122.0.0.0 Safari/537.36" etag="fXfRpSpewxKIhy0cXmKN" version="24.0.7" type="device">
  <diagram name="Page-1" id="3ZzHP0k8Jbw2vsNOOdsh">
    <mxGraphModel dx="1875" dy="995" grid="1" gridSize="10" guides="1" tooltips="1" connect="1" arrows="1" fold="1" page="1" pageScale="1" pageWidth="827" pageHeight="1169" math="0" shadow="0">
      <root>
        <mxCell id="0" />
        <mxCell id="1" parent="0" />
        <mxCell id="HbmUQJQOtVZu-pWprkvL-2" value="" style="rounded=0;whiteSpace=wrap;html=1;fillColor=#d5e8d4;strokeColor=#82b366;" vertex="1" parent="1">
          <mxGeometry x="400" y="480" width="160" height="110" as="geometry" />
        </mxCell>
        <mxCell id="HbmUQJQOtVZu-pWprkvL-3" value="" style="rounded=0;whiteSpace=wrap;html=1;fillColor=#d5e8d4;strokeColor=#82b366;" vertex="1" parent="1">
          <mxGeometry x="40" y="480" width="160" height="110" as="geometry" />
        </mxCell>
        <mxCell id="HbmUQJQOtVZu-pWprkvL-4" value="NAT Gateway" style="sketch=0;outlineConnect=0;fontColor=#232F3E;gradientColor=none;fillColor=#8C4FFF;strokeColor=none;dashed=0;verticalLabelPosition=bottom;verticalAlign=top;align=center;html=1;fontSize=12;fontStyle=0;aspect=fixed;pointerEvents=1;shape=mxgraph.aws4.nat_gateway;" vertex="1" parent="1">
          <mxGeometry x="461" y="516" width="38" height="38" as="geometry" />
        </mxCell>
        <mxCell id="HbmUQJQOtVZu-pWprkvL-8" value="NAT Gateway" style="sketch=0;outlineConnect=0;fontColor=#232F3E;gradientColor=none;fillColor=#8C4FFF;strokeColor=none;dashed=0;verticalLabelPosition=bottom;verticalAlign=top;align=center;html=1;fontSize=12;fontStyle=0;aspect=fixed;pointerEvents=1;shape=mxgraph.aws4.nat_gateway;" vertex="1" parent="1">
          <mxGeometry x="101" y="516" width="38" height="38" as="geometry" />
        </mxCell>
        <mxCell id="HbmUQJQOtVZu-pWprkvL-9" value="" style="rounded=0;whiteSpace=wrap;html=1;fillColor=#f5f5f5;fontColor=#333333;strokeColor=#666666;" vertex="1" parent="1">
          <mxGeometry x="40" y="630" width="160" height="110" as="geometry" />
        </mxCell>
        <mxCell id="HbmUQJQOtVZu-pWprkvL-10" value="" style="rounded=0;whiteSpace=wrap;html=1;fillColor=#f5f5f5;fontColor=#333333;strokeColor=#666666;" vertex="1" parent="1">
          <mxGeometry x="400" y="630" width="160" height="110" as="geometry" />
        </mxCell>
        <mxCell id="HbmUQJQOtVZu-pWprkvL-11" value="Private subnet" style="text;html=1;align=center;verticalAlign=middle;resizable=0;points=[];autosize=1;strokeColor=none;fillColor=none;" vertex="1" parent="1">
          <mxGeometry x="30" y="608" width="100" height="30" as="geometry" />
        </mxCell>
        <mxCell id="HbmUQJQOtVZu-pWprkvL-12" value="Public subnet" style="text;html=1;align=center;verticalAlign=middle;resizable=0;points=[];autosize=1;strokeColor=none;fillColor=none;" vertex="1" parent="1">
          <mxGeometry x="30" y="460" width="100" height="30" as="geometry" />
        </mxCell>
        <mxCell id="HbmUQJQOtVZu-pWprkvL-13" value="Public subnet" style="text;html=1;align=center;verticalAlign=middle;resizable=0;points=[];autosize=1;strokeColor=none;fillColor=none;" vertex="1" parent="1">
          <mxGeometry x="390" y="460" width="100" height="30" as="geometry" />
        </mxCell>
        <mxCell id="HbmUQJQOtVZu-pWprkvL-14" value="Private subnet" style="text;html=1;align=center;verticalAlign=middle;resizable=0;points=[];autosize=1;strokeColor=none;fillColor=none;" vertex="1" parent="1">
          <mxGeometry x="390" y="608" width="100" height="30" as="geometry" />
        </mxCell>
        <mxCell id="HbmUQJQOtVZu-pWprkvL-15" value="EC2" style="outlineConnect=0;dashed=0;verticalLabelPosition=bottom;verticalAlign=top;align=center;html=1;shape=mxgraph.aws3.ec2;fillColor=#F58534;gradientColor=none;" vertex="1" parent="1">
          <mxGeometry x="90" y="650" width="40" height="53" as="geometry" />
        </mxCell>
        <mxCell id="HbmUQJQOtVZu-pWprkvL-16" value="EC2" style="outlineConnect=0;dashed=0;verticalLabelPosition=bottom;verticalAlign=top;align=center;html=1;shape=mxgraph.aws3.ec2;fillColor=#F58534;gradientColor=none;" vertex="1" parent="1">
          <mxGeometry x="459" y="650" width="40" height="53" as="geometry" />
        </mxCell>
        <mxCell id="HbmUQJQOtVZu-pWprkvL-17" value="" style="rounded=0;whiteSpace=wrap;html=1;fillColor=#f5f5f5;fontColor=#333333;strokeColor=#666666;" vertex="1" parent="1">
          <mxGeometry x="40" y="770" width="160" height="110" as="geometry" />
        </mxCell>
        <mxCell id="HbmUQJQOtVZu-pWprkvL-18" value="" style="rounded=0;whiteSpace=wrap;html=1;fillColor=#f5f5f5;fontColor=#333333;strokeColor=#666666;" vertex="1" parent="1">
          <mxGeometry x="400" y="770" width="160" height="110" as="geometry" />
        </mxCell>
        <mxCell id="HbmUQJQOtVZu-pWprkvL-19" value="Private subnet" style="text;html=1;align=center;verticalAlign=middle;resizable=0;points=[];autosize=1;strokeColor=none;fillColor=none;" vertex="1" parent="1">
          <mxGeometry x="30" y="750" width="100" height="30" as="geometry" />
        </mxCell>
        <mxCell id="HbmUQJQOtVZu-pWprkvL-20" value="Private subnet" style="text;html=1;align=center;verticalAlign=middle;resizable=0;points=[];autosize=1;strokeColor=none;fillColor=none;" vertex="1" parent="1">
          <mxGeometry x="390" y="750" width="100" height="30" as="geometry" />
        </mxCell>
        <mxCell id="HbmUQJQOtVZu-pWprkvL-21" value="RDS" style="outlineConnect=0;dashed=0;verticalLabelPosition=bottom;verticalAlign=top;align=center;html=1;shape=mxgraph.aws3.rds;fillColor=#2E73B8;gradientColor=none;" vertex="1" parent="1">
          <mxGeometry x="90" y="790" width="40" height="50" as="geometry" />
        </mxCell>
        <mxCell id="HbmUQJQOtVZu-pWprkvL-22" value="RDS" style="outlineConnect=0;dashed=0;verticalLabelPosition=bottom;verticalAlign=top;align=center;html=1;shape=mxgraph.aws3.rds;fillColor=#2E73B8;gradientColor=none;" vertex="1" parent="1">
          <mxGeometry x="459" y="790" width="40" height="50" as="geometry" />
        </mxCell>
        <mxCell id="HbmUQJQOtVZu-pWprkvL-23" value="" style="endArrow=classic;html=1;rounded=0;exitX=0.005;exitY=0.643;exitDx=0;exitDy=0;exitPerimeter=0;" edge="1" parent="1" source="HbmUQJQOtVZu-pWprkvL-9" target="HbmUQJQOtVZu-pWprkvL-8">
          <mxGeometry width="50" height="50" relative="1" as="geometry">
            <mxPoint x="350" y="530" as="sourcePoint" />
            <mxPoint x="400" y="480" as="targetPoint" />
            <Array as="points">
              <mxPoint y="700" />
              <mxPoint y="535" />
            </Array>
          </mxGeometry>
        </mxCell>
        <mxCell id="HbmUQJQOtVZu-pWprkvL-24" value="" style="endArrow=classic;html=1;rounded=0;exitX=1.005;exitY=0.571;exitDx=0;exitDy=0;exitPerimeter=0;" edge="1" parent="1" source="HbmUQJQOtVZu-pWprkvL-10" target="HbmUQJQOtVZu-pWprkvL-4">
          <mxGeometry width="50" height="50" relative="1" as="geometry">
            <mxPoint x="440" y="530" as="sourcePoint" />
            <mxPoint x="490" y="480" as="targetPoint" />
            <Array as="points">
              <mxPoint x="610" y="693" />
              <mxPoint x="610" y="535" />
            </Array>
          </mxGeometry>
        </mxCell>
        <mxCell id="HbmUQJQOtVZu-pWprkvL-25" value="Internet Gateway" style="sketch=0;outlineConnect=0;fontColor=#232F3E;gradientColor=none;fillColor=#8C4FFF;strokeColor=none;dashed=0;verticalLabelPosition=bottom;verticalAlign=top;align=center;html=1;fontSize=12;fontStyle=0;aspect=fixed;pointerEvents=1;shape=mxgraph.aws4.internet_gateway;" vertex="1" parent="1">
          <mxGeometry x="270" y="330" width="48" height="48" as="geometry" />
        </mxCell>
        <mxCell id="HbmUQJQOtVZu-pWprkvL-26" value="" style="endArrow=classic;html=1;rounded=0;" edge="1" parent="1" target="HbmUQJQOtVZu-pWprkvL-25">
          <mxGeometry width="50" height="50" relative="1" as="geometry">
            <mxPoint x="294" y="530" as="sourcePoint" />
            <mxPoint x="440" y="480" as="targetPoint" />
            <Array as="points" />
          </mxGeometry>
        </mxCell>
        <mxCell id="HbmUQJQOtVZu-pWprkvL-31" value="" style="endArrow=none;html=1;rounded=0;endFill=0;" edge="1" parent="1" source="HbmUQJQOtVZu-pWprkvL-29">
          <mxGeometry width="50" height="50" relative="1" as="geometry">
            <mxPoint x="411" y="535" as="sourcePoint" />
            <mxPoint x="300" y="535" as="targetPoint" />
            <Array as="points">
              <mxPoint x="294" y="535" />
            </Array>
          </mxGeometry>
        </mxCell>
        <mxCell id="HbmUQJQOtVZu-pWprkvL-32" value="" style="endArrow=none;html=1;rounded=0;endFill=0;" edge="1" parent="1" source="HbmUQJQOtVZu-pWprkvL-4" target="HbmUQJQOtVZu-pWprkvL-29">
          <mxGeometry width="50" height="50" relative="1" as="geometry">
            <mxPoint x="461" y="535" as="sourcePoint" />
            <mxPoint x="350" y="535" as="targetPoint" />
            <Array as="points" />
          </mxGeometry>
        </mxCell>
        <mxCell id="HbmUQJQOtVZu-pWprkvL-29" value="" style="ellipse;whiteSpace=wrap;html=1;aspect=fixed;fillColor=#ffe6cc;strokeColor=#d79b00;" vertex="1" parent="1">
          <mxGeometry x="330" y="525" width="20" height="20" as="geometry" />
        </mxCell>
        <mxCell id="HbmUQJQOtVZu-pWprkvL-34" value="" style="endArrow=none;html=1;rounded=0;endFill=0;" edge="1" parent="1" source="HbmUQJQOtVZu-pWprkvL-8" target="HbmUQJQOtVZu-pWprkvL-33">
          <mxGeometry width="50" height="50" relative="1" as="geometry">
            <mxPoint x="179" y="535" as="sourcePoint" />
            <mxPoint x="294" y="398" as="targetPoint" />
            <Array as="points">
              <mxPoint x="294" y="535" />
            </Array>
          </mxGeometry>
        </mxCell>
        <mxCell id="HbmUQJQOtVZu-pWprkvL-33" value="" style="ellipse;whiteSpace=wrap;html=1;aspect=fixed;fillColor=#ffe6cc;strokeColor=#d79b00;" vertex="1" parent="1">
          <mxGeometry x="240" y="525" width="20" height="20" as="geometry" />
        </mxCell>
        <mxCell id="HbmUQJQOtVZu-pWprkvL-39" value="&lt;span style=&quot;text-wrap: wrap;&quot;&gt;Elastic IP address&lt;/span&gt;" style="text;html=1;align=center;verticalAlign=middle;resizable=0;points=[];autosize=1;strokeColor=none;fillColor=none;" vertex="1" parent="1">
          <mxGeometry x="190" y="554" width="120" height="30" as="geometry" />
        </mxCell>
        <mxCell id="HbmUQJQOtVZu-pWprkvL-40" value="" style="endArrow=classic;html=1;rounded=0;entryX=0.5;entryY=0;entryDx=0;entryDy=0;" edge="1" parent="1" source="HbmUQJQOtVZu-pWprkvL-25" target="HbmUQJQOtVZu-pWprkvL-2">
          <mxGeometry width="50" height="50" relative="1" as="geometry">
            <mxPoint x="390" y="530" as="sourcePoint" />
            <mxPoint x="440" y="480" as="targetPoint" />
            <Array as="points">
              <mxPoint x="480" y="354" />
            </Array>
          </mxGeometry>
        </mxCell>
        <mxCell id="HbmUQJQOtVZu-pWprkvL-41" value="" style="endArrow=classic;html=1;rounded=0;entryX=0.5;entryY=0;entryDx=0;entryDy=0;" edge="1" parent="1" source="HbmUQJQOtVZu-pWprkvL-25" target="HbmUQJQOtVZu-pWprkvL-3">
          <mxGeometry width="50" height="50" relative="1" as="geometry">
            <mxPoint x="120" y="380" as="sourcePoint" />
            <mxPoint x="170" y="330" as="targetPoint" />
            <Array as="points">
              <mxPoint x="120" y="354" />
            </Array>
          </mxGeometry>
        </mxCell>
        <mxCell id="HbmUQJQOtVZu-pWprkvL-42" value="" style="rounded=0;whiteSpace=wrap;html=1;fillColor=none;dashed=1;dashPattern=12 12;" vertex="1" parent="1">
          <mxGeometry x="-20" y="240" width="240.5" height="720" as="geometry" />
        </mxCell>
        <mxCell id="HbmUQJQOtVZu-pWprkvL-46" value="&lt;span style=&quot;text-wrap: wrap;&quot;&gt;Elastic IP address&lt;/span&gt;" style="text;html=1;align=center;verticalAlign=middle;resizable=0;points=[];autosize=1;strokeColor=none;fillColor=none;" vertex="1" parent="1">
          <mxGeometry x="280" y="554" width="120" height="30" as="geometry" />
        </mxCell>
        <mxCell id="HbmUQJQOtVZu-pWprkvL-47" value="" style="rounded=0;whiteSpace=wrap;html=1;fillColor=none;dashed=1;dashPattern=12 12;" vertex="1" parent="1">
          <mxGeometry x="370" y="240" width="240.5" height="720" as="geometry" />
        </mxCell>
        <mxCell id="HbmUQJQOtVZu-pWprkvL-48" value="eu-west-2" style="text;html=1;align=center;verticalAlign=middle;resizable=0;points=[];autosize=1;strokeColor=none;fillColor=none;" vertex="1" parent="1">
          <mxGeometry x="-30" y="220" width="80" height="30" as="geometry" />
        </mxCell>
        <mxCell id="HbmUQJQOtVZu-pWprkvL-49" value="eu-west-1" style="text;html=1;align=center;verticalAlign=middle;resizable=0;points=[];autosize=1;strokeColor=none;fillColor=none;" vertex="1" parent="1">
          <mxGeometry x="350" y="220" width="80" height="30" as="geometry" />
        </mxCell>
        <mxCell id="HbmUQJQOtVZu-pWprkvL-50" value="" style="rounded=0;whiteSpace=wrap;html=1;fillColor=none;strokeColor=#328505;strokeWidth=2;" vertex="1" parent="1">
          <mxGeometry x="-81.5" y="310" width="751" height="590" as="geometry" />
        </mxCell>
        <mxCell id="HbmUQJQOtVZu-pWprkvL-51" value="&lt;font color=&quot;#00994d&quot;&gt;VPC&lt;/font&gt;" style="text;html=1;align=center;verticalAlign=middle;resizable=0;points=[];autosize=1;strokeColor=none;fillColor=none;" vertex="1" parent="1">
          <mxGeometry x="-90" y="280" width="50" height="30" as="geometry" />
        </mxCell>
        <mxCell id="HbmUQJQOtVZu-pWprkvL-52" value="" style="endArrow=classic;html=1;rounded=0;" edge="1" parent="1">
          <mxGeometry width="50" height="50" relative="1" as="geometry">
            <mxPoint x="294" y="160" as="sourcePoint" />
            <mxPoint x="294" y="330" as="targetPoint" />
          </mxGeometry>
        </mxCell>
      </root>
    </mxGraphModel>
  </diagram>
</mxfile>
